<svg 
  width="641.8"
  height="75.201"
  viewBox="0 0 641.8 75.201"
  xmlns="http://www.w3.org/2000/svg">
  <style>
    g, path {
      fill: #000;
      stroke: #000;
    }
    @media (prefers-color-scheme: dark) {
      g, path {
        fill: #fff;
        stroke: #fff;
      }
    }
  </style>
  <g
    id="svgGroup"
    stroke-linecap="round"
    fill-rule="evenodd"
    font-size="9pt"
    stroke="#000"
    stroke-width="0.25mm"
    fill="#000000"
    style="stroke:#000;stroke-width:0mm;fill:#000000">
    <path 
      vector-effect="non-scaling-stroke"
      d="M 9 74 L 0 74 L 0 4 L 13.3 4 L 32.7 48.3 L 51.8 4 L 65.4 4 L 65.4 74 L 55.9 74 L 55.9 16.1 L 37.2 58.2 L 27.8 58.2 L 9 16.1 L 9 74 Z M 199.3 74 L 190.3 74 L 190.3 0 L 199.3 0 L 199.3 30.3 Q 202.1 26.2 206.4 23.5 A 17.572 17.572 0 0 1 213.525 20.991 A 22.595 22.595 0 0 1 216.5 20.8 A 23.225 23.225 0 0 1 221.565 21.318 Q 226.659 22.456 229.65 26.1 Q 233.775 31.126 233.988 39.209 A 33.764 33.764 0 0 1 234 40.1 L 234 74 L 225 74 L 225 41.1 Q 225 35.5 222.4 32.1 A 8.42 8.42 0 0 0 216.242 28.753 A 11.979 11.979 0 0 0 215.1 28.7 A 13.23 13.23 0 0 0 208.387 30.566 A 17.586 17.586 0 0 0 206.35 31.95 Q 202.2 35.2 199.3 39.6 L 199.3 74 Z M 342 55.8 L 342 22 L 351 22 L 351 54.6 A 22.981 22.981 0 0 0 351.254 58.134 Q 351.542 59.981 352.157 61.469 A 10.136 10.136 0 0 0 353.6 63.95 A 8.404 8.404 0 0 0 358.713 66.971 A 12.807 12.807 0 0 0 361.2 67.2 Q 365.3 67.2 369.15 65.55 Q 373 63.9 376 61.1 L 376 22 L 385 22 L 385 60.5 A 15.602 15.602 0 0 0 385.102 62.354 Q 385.434 65.116 386.85 66.15 Q 388.7 67.5 390.9 67.5 L 389 74.5 Q 379.7 74.5 377.5 67.1 Q 374 70.7 369.4 72.95 Q 364.8 75.2 359.5 75.2 Q 355 75.2 351 73.3 A 14.441 14.441 0 0 1 345.49 68.661 A 18.266 18.266 0 0 1 344.5 67.15 A 16.24 16.24 0 0 1 342.836 63.057 Q 342 59.905 342 55.8 Z M 411.9 74 L 402.9 74 L 402.9 22 L 411.6 22 L 411.6 30.7 Q 414.4 26.5 418.75 23.65 A 17.316 17.316 0 0 1 425.856 21.025 A 22.629 22.629 0 0 1 429.1 20.8 A 23.225 23.225 0 0 1 434.165 21.318 Q 439.259 22.456 442.25 26.1 Q 446.375 31.126 446.588 39.209 A 33.764 33.764 0 0 1 446.6 40.1 L 446.6 74 L 437.6 74 L 437.6 41.1 A 19.265 19.265 0 0 0 437.258 37.359 Q 436.819 35.145 435.819 33.397 A 10.966 10.966 0 0 0 434.95 32.1 A 8.579 8.579 0 0 0 428.673 28.747 A 12.061 12.061 0 0 0 427.6 28.7 A 13.122 13.122 0 0 0 420.751 30.664 A 17.353 17.353 0 0 0 418.9 31.95 Q 414.8 35.2 411.9 39.6 L 411.9 74 Z M 496.5 27.2 L 496.5 0 L 505.5 0 L 505.5 61.4 A 12.15 12.15 0 0 0 505.602 63.036 Q 505.934 65.47 507.35 66.35 Q 509.2 67.5 511.4 67.5 L 509.5 74.5 Q 500 74.5 497.9 66.9 Q 495.7 70 491.75 72.6 Q 487.8 75.2 481.8 75.2 Q 475.4 75.2 470.1 71.9 A 22.692 22.692 0 0 1 462.562 64.109 A 27.622 27.622 0 0 1 461.7 62.55 A 27.533 27.533 0 0 1 459.112 54.608 A 37.221 37.221 0 0 1 458.6 48.3 A 33.94 33.94 0 0 1 459.489 40.386 A 27.963 27.963 0 0 1 461.75 34.2 A 27.291 27.291 0 0 1 466.369 27.609 A 24.186 24.186 0 0 1 470.15 24.4 Q 475.4 20.8 481.7 20.8 A 21.642 21.642 0 0 1 485.972 21.202 A 15.942 15.942 0 0 1 490.65 22.9 A 34.343 34.343 0 0 1 493.23 24.489 Q 494.454 25.324 495.425 26.174 A 16.59 16.59 0 0 1 496.5 27.2 Z M 280.5 73.8 L 280.5 4.2 A 100.907 100.907 0 0 1 282.356 4.006 Q 285.253 3.729 289.076 3.507 A 270.552 270.552 0 0 1 289.2 3.5 A 168.416 168.416 0 0 1 294.037 3.295 Q 296.508 3.224 299.245 3.206 A 285.352 285.352 0 0 1 301.1 3.2 Q 309.5 3.2 315.359 5.289 A 22.604 22.604 0 0 1 320.8 8.05 A 16.711 16.711 0 0 1 325.363 12.707 Q 327.554 16.14 327.691 20.601 A 19.526 19.526 0 0 1 327.7 21.2 A 17.052 17.052 0 0 1 327.073 25.92 A 13.798 13.798 0 0 1 324.75 30.55 Q 321.8 34.4 316.2 36.9 A 30.217 30.217 0 0 1 320.836 38.96 Q 324.313 40.894 326.5 43.55 Q 330 47.8 330 54 Q 330 63.315 322.79 68.928 A 22.979 22.979 0 0 1 322.5 69.15 A 24.681 24.681 0 0 1 315.123 72.86 Q 309.079 74.8 300.7 74.8 A 221.836 221.836 0 0 1 292.62 74.658 A 187.566 187.566 0 0 1 289.15 74.5 A 227.449 227.449 0 0 1 286.566 74.344 Q 283.759 74.157 281.695 73.938 A 65.535 65.535 0 0 1 280.5 73.8 Z M 598.6 51.7 L 562.2 51.7 A 24.088 24.088 0 0 0 563.339 56.725 Q 564.675 60.538 567.3 63.1 Q 571.5 67.2 578.4 67.2 Q 582.9 67.2 586.5 66.25 Q 590.1 65.3 593.4 63.8 L 595.5 71.5 A 40.77 40.77 0 0 1 591.165 73.126 A 51.863 51.863 0 0 1 587.4 74.15 A 38.914 38.914 0 0 1 582.308 74.969 A 52.025 52.025 0 0 1 577.3 75.2 A 28.318 28.318 0 0 1 569.554 74.195 A 21.108 21.108 0 0 1 559.55 68.05 A 23.521 23.521 0 0 1 554.345 58.51 Q 553 53.845 553 48 A 35.359 35.359 0 0 1 553.833 40.178 A 28.84 28.84 0 0 1 555.95 34.05 A 24.642 24.642 0 0 1 560.966 26.968 A 22.887 22.887 0 0 1 564.2 24.35 A 21.048 21.048 0 0 1 574.459 20.878 A 26.205 26.205 0 0 1 576.5 20.8 Q 584 20.8 588.95 24.05 Q 593.9 27.3 596.4 32.8 A 28.185 28.185 0 0 1 598.826 42.664 A 33.434 33.434 0 0 1 598.9 44.9 A 75.204 75.204 0 0 1 598.609 51.597 A 69.426 69.426 0 0 1 598.6 51.7 Z M 179 23.9 L 176.3 31.5 A 30.422 30.422 0 0 0 173.396 30.224 A 23.42 23.42 0 0 0 170.95 29.45 A 20.543 20.543 0 0 0 167.907 28.924 A 26.355 26.355 0 0 0 165.3 28.8 A 15.889 15.889 0 0 0 158.047 30.443 A 16.132 16.132 0 0 0 153.55 33.85 Q 148.8 38.9 148.8 47.8 A 25.192 25.192 0 0 0 149.505 53.86 A 21.45 21.45 0 0 0 150.8 57.6 A 18.564 18.564 0 0 0 153.71 62.177 A 16.275 16.275 0 0 0 156.35 64.6 Q 159.9 67.2 164.7 67.2 Q 167.865 67.2 170.268 66.61 A 15.08 15.08 0 0 0 171.2 66.35 Q 173.889 65.503 176.976 63.912 A 49.095 49.095 0 0 0 177 63.9 L 179.8 71.5 Q 176.7 73.2 172.85 74.2 Q 169 75.2 164.1 75.2 A 26.803 26.803 0 0 1 157.061 74.31 A 22.074 22.074 0 0 1 151.15 71.75 Q 145.6 68.3 142.6 62.15 Q 139.6 56 139.6 48 Q 139.6 40.5 142.65 34.3 Q 145.7 28.1 151.4 24.45 A 23.067 23.067 0 0 1 161.068 21.029 A 29.608 29.608 0 0 1 164.8 20.8 Q 169.2 20.8 172.55 21.6 Q 175.9 22.4 179 23.9 Z M 118 26.2 L 118 22 L 126.2 22 L 126.2 61.4 A 12.15 12.15 0 0 0 126.302 63.036 Q 126.634 65.47 128.05 66.35 Q 129.9 67.5 132.1 67.5 L 130.2 74.5 A 17.722 17.722 0 0 1 125.935 74.028 Q 120.298 72.628 118.703 67.08 A 13.59 13.59 0 0 1 118.6 66.7 A 21.307 21.307 0 0 1 115.49 70.126 A 28.498 28.498 0 0 1 112.35 72.55 Q 108.4 75.2 102.3 75.2 Q 95.8 75.2 90.5 71.9 A 22.947 22.947 0 0 1 83.087 64.373 A 27.923 27.923 0 0 1 82.05 62.55 A 27.228 27.228 0 0 1 79.42 54.608 A 36.644 36.644 0 0 1 78.9 48.3 A 33.142 33.142 0 0 1 79.897 40.031 A 27.968 27.968 0 0 1 82.05 34.3 Q 85.2 28.1 90.75 24.45 A 22.297 22.297 0 0 1 101.945 20.844 A 27.388 27.388 0 0 1 103.5 20.8 A 22.584 22.584 0 0 1 108.294 21.29 A 18.703 18.703 0 0 1 111.65 22.35 A 26.002 26.002 0 0 1 115.937 24.644 A 22.103 22.103 0 0 1 118 26.2 Z M 522.9 57.7 L 522.9 0 L 531.9 0 L 531.9 56.8 A 20.644 20.644 0 0 0 532.088 59.688 Q 532.55 62.952 534.15 64.8 A 7.363 7.363 0 0 0 538.734 67.276 A 10.724 10.724 0 0 0 540.4 67.4 Q 542.3 67.4 544.15 66.95 A 22.192 22.192 0 0 0 545.613 66.544 Q 546.548 66.247 547.3 65.9 L 549.5 73.2 Q 548.101 73.822 546.188 74.323 A 34.978 34.978 0 0 1 545.05 74.6 A 23.816 23.816 0 0 1 541.895 75.085 A 30.514 30.514 0 0 1 539.2 75.2 A 20.862 20.862 0 0 1 534.31 74.646 A 17.544 17.544 0 0 1 530.9 73.45 A 12.683 12.683 0 0 1 525.575 68.685 A 15.856 15.856 0 0 1 525.05 67.8 Q 523.316 64.654 522.98 60.012 A 32.105 32.105 0 0 1 522.9 57.7 Z M 619.9 74 L 610.9 74 L 610.9 22 L 619.6 22 L 619.6 33.3 Q 620.9 30 623.1 27.15 Q 625.3 24.3 628.6 22.55 A 14.817 14.817 0 0 1 633.28 21.026 A 19.459 19.459 0 0 1 636.3 20.8 Q 637.8 20.8 639.3 20.95 A 18.972 18.972 0 0 1 640.355 21.084 Q 640.855 21.162 641.282 21.262 A 8.817 8.817 0 0 1 641.8 21.4 L 639.1 30.7 A 9.763 9.763 0 0 0 636.955 30.088 Q 635.859 29.9 634.6 29.9 A 12.958 12.958 0 0 0 627.97 31.746 A 15.609 15.609 0 0 0 627.55 32 Q 624.222 34.086 622.078 38.442 A 22.927 22.927 0 0 0 622.05 38.5 Q 620.287 42.107 619.97 47.328 A 39.09 39.09 0 0 0 619.9 49.7 L 619.9 74 Z M 117.2 60.7 L 117.2 32.8 Q 114.5 30.9 111.25 29.75 Q 108 28.6 104.4 28.6 A 15.924 15.924 0 0 0 99.429 29.354 A 14.024 14.024 0 0 0 95.95 31.05 A 16.301 16.301 0 0 0 90.931 36.474 A 19.962 19.962 0 0 0 90.2 37.85 A 20.663 20.663 0 0 0 88.447 43.527 A 27.678 27.678 0 0 0 88.1 48 Q 88.1 53.6 90.2 57.95 A 17.602 17.602 0 0 0 93.306 62.496 A 15.697 15.697 0 0 0 96 64.75 Q 99.7 67.2 104.3 67.2 Q 108.1 67.2 111.5 65.35 Q 114.9 63.5 117.2 60.7 Z M 496.5 60.9 L 496.5 35.1 A 15.847 15.847 0 0 0 494.389 32.927 Q 493.268 31.964 491.869 31.066 A 28.139 28.139 0 0 0 491.2 30.65 Q 487.8 28.6 483.7 28.6 A 14.946 14.946 0 0 0 478.744 29.4 A 13.385 13.385 0 0 0 475.3 31.2 A 16.69 16.69 0 0 0 470.13 37.35 A 19.924 19.924 0 0 0 469.75 38.15 A 22.19 22.19 0 0 0 468.01 44.514 A 28.113 28.113 0 0 0 467.8 48 A 24.757 24.757 0 0 0 468.393 53.519 A 20.327 20.327 0 0 0 469.9 57.85 A 18.205 18.205 0 0 0 472.94 62.363 A 16.122 16.122 0 0 0 475.65 64.7 Q 479.3 67.2 483.8 67.2 Q 487.5 67.2 490.85 65.45 Q 494.2 63.7 496.5 60.9 Z M 301.4 41.6 L 290 41.6 L 290 66.3 Q 295.3 66.9 301.4 66.9 Q 310.3 66.9 315.3 63.7 Q 320.3 60.5 320.3 54.4 A 11.728 11.728 0 0 0 319.428 49.8 Q 318.326 47.187 315.833 45.312 A 14.027 14.027 0 0 0 315.4 45 A 16.7 16.7 0 0 0 310.726 42.799 Q 306.803 41.6 301.4 41.6 Z M 290 11.4 L 290 34.2 L 301 34.2 Q 308.9 34.2 313.55 30.9 Q 318.2 27.6 318.2 22.4 A 10.798 10.798 0 0 0 317.526 18.501 Q 316.439 15.671 313.6 13.85 A 16.643 16.643 0 0 0 309.114 11.886 Q 305.625 10.9 301 10.9 Q 297.7 10.9 295 11.05 Q 292.3 11.2 290 11.4 Z M 562.1 44.4 L 590.6 44.4 A 24.355 24.355 0 0 0 590.196 39.815 Q 589.7 37.231 588.596 35.207 A 12.422 12.422 0 0 0 586.8 32.7 A 12.488 12.488 0 0 0 579.839 28.924 A 18.395 18.395 0 0 0 576.3 28.6 A 13.58 13.58 0 0 0 571.188 29.535 A 12.524 12.524 0 0 0 566.7 32.65 Q 562.9 36.7 562.1 44.4 Z" />
  </g>
</svg>