<svg 
  width="234"
  height="75.201"
  viewBox="0 0 234 75.201"
  xmlns="http://www.w3.org/2000/svg">
  <style>
    g, path {
      fill: #000;
      stroke: #000;
    }
    @media (prefers-color-scheme: dark) {
      g, path {
        fill: #fff;
        stroke: #fff;
      }
    }
  </style>
  <g
    id="svgGroup"
    stroke-linecap="round"
    fill-rule="evenodd"
    font-size="9pt"
    stroke="#000"
    stroke-width="0.25mm"
    fill="#000000"
    style="stroke:#000;stroke-width:0mm;fill:#000000">
    <path 
      vector-effect="non-scaling-stroke"
      d="M 9 74 L 0 74 L 0 4 L 13.3 4 L 32.7 48.3 L 51.8 4 L 65.4 4 L 65.4 74 L 55.9 74 L 55.9 16.1 L 37.2 58.2 L 27.8 58.2 L 9 16.1 L 9 74 Z M 199.3 74 L 190.3 74 L 190.3 0 L 199.3 0 L 199.3 30.3 Q 202.1 26.2 206.4 23.5 A 17.572 17.572 0 0 1 213.525 20.991 A 22.595 22.595 0 0 1 216.5 20.8 A 23.225 23.225 0 0 1 221.565 21.318 Q 226.659 22.456 229.65 26.1 Q 233.775 31.126 233.988 39.209 A 33.764 33.764 0 0 1 234 40.1 L 234 74 L 225 74 L 225 41.1 Q 225 35.5 222.4 32.1 A 8.42 8.42 0 0 0 216.242 28.753 A 11.979 11.979 0 0 0 215.1 28.7 A 13.23 13.23 0 0 0 208.387 30.566 A 17.586 17.586 0 0 0 206.35 31.95 Q 202.2 35.2 199.3 39.6 L 199.3 74 Z M 179 23.9 L 176.3 31.5 A 30.422 30.422 0 0 0 173.396 30.224 A 23.42 23.42 0 0 0 170.95 29.45 A 20.543 20.543 0 0 0 167.907 28.924 A 26.355 26.355 0 0 0 165.3 28.8 A 15.889 15.889 0 0 0 158.047 30.443 A 16.132 16.132 0 0 0 153.55 33.85 Q 148.8 38.9 148.8 47.8 A 25.192 25.192 0 0 0 149.505 53.86 A 21.45 21.45 0 0 0 150.8 57.6 A 18.564 18.564 0 0 0 153.71 62.177 A 16.275 16.275 0 0 0 156.35 64.6 Q 159.9 67.2 164.7 67.2 Q 167.865 67.2 170.268 66.61 A 15.08 15.08 0 0 0 171.2 66.35 Q 173.889 65.503 176.976 63.912 A 49.095 49.095 0 0 0 177 63.9 L 179.8 71.5 Q 176.7 73.2 172.85 74.2 Q 169 75.2 164.1 75.2 A 26.803 26.803 0 0 1 157.061 74.31 A 22.074 22.074 0 0 1 151.15 71.75 Q 145.6 68.3 142.6 62.15 Q 139.6 56 139.6 48 Q 139.6 40.5 142.65 34.3 Q 145.7 28.1 151.4 24.45 A 23.067 23.067 0 0 1 161.068 21.029 A 29.608 29.608 0 0 1 164.8 20.8 Q 169.2 20.8 172.55 21.6 Q 175.9 22.4 179 23.9 Z M 118 26.2 L 118 22 L 126.2 22 L 126.2 61.4 A 12.15 12.15 0 0 0 126.302 63.036 Q 126.634 65.47 128.05 66.35 Q 129.9 67.5 132.1 67.5 L 130.2 74.5 A 17.722 17.722 0 0 1 125.935 74.028 Q 120.298 72.628 118.703 67.08 A 13.59 13.59 0 0 1 118.6 66.7 A 21.307 21.307 0 0 1 115.49 70.126 A 28.498 28.498 0 0 1 112.35 72.55 Q 108.4 75.2 102.3 75.2 Q 95.8 75.2 90.5 71.9 A 22.947 22.947 0 0 1 83.087 64.373 A 27.923 27.923 0 0 1 82.05 62.55 A 27.228 27.228 0 0 1 79.42 54.608 A 36.644 36.644 0 0 1 78.9 48.3 A 33.142 33.142 0 0 1 79.897 40.031 A 27.968 27.968 0 0 1 82.05 34.3 Q 85.2 28.1 90.75 24.45 A 22.297 22.297 0 0 1 101.945 20.844 A 27.388 27.388 0 0 1 103.5 20.8 A 22.584 22.584 0 0 1 108.294 21.29 A 18.703 18.703 0 0 1 111.65 22.35 A 26.002 26.002 0 0 1 115.937 24.644 A 22.103 22.103 0 0 1 118 26.2 Z M 117.2 60.7 L 117.2 32.8 Q 114.5 30.9 111.25 29.75 Q 108 28.6 104.4 28.6 A 15.924 15.924 0 0 0 99.429 29.354 A 14.024 14.024 0 0 0 95.95 31.05 A 16.301 16.301 0 0 0 90.931 36.474 A 19.962 19.962 0 0 0 90.2 37.85 A 20.663 20.663 0 0 0 88.447 43.527 A 27.678 27.678 0 0 0 88.1 48 Q 88.1 53.6 90.2 57.95 A 17.602 17.602 0 0 0 93.306 62.496 A 15.697 15.697 0 0 0 96 64.75 Q 99.7 67.2 104.3 67.2 Q 108.1 67.2 111.5 65.35 Q 114.9 63.5 117.2 60.7 Z" />
  </g>
</svg>