<svg 
  width="486.3" 
  height="96" 
  viewBox="0 0 486.3 96" 
  xmlns="http://www.w3.org/2000/svg">
  <style>
    g, path {
      fill: #000;
      stroke: #000;
    }
    @media (prefers-color-scheme: dark) {
      g, path {
        fill: #fff;
        stroke: #fff;
      }
    }
  </style>
  <g 
    id="svgGroup" 
    stroke-linecap="round" 
    fill-rule="evenodd"
    font-size="9pt"
    stroke="#000"
    stroke-width="0.25mm"
    fill="#000"
    style="stroke:#000;stroke-width:0mm;fill:#000">
      <path
        vector-effect="non-scaling-stroke"
        d="M 392.6 69.8 L 396.4 62.3 A 18.557 18.557 0 0 0 399.544 64.426 Q 401.098 65.27 402.95 65.95 A 24.073 24.073 0 0 0 410.561 67.387 A 27.464 27.464 0 0 0 411.4 67.4 Q 416.792 67.4 419.635 65.685 A 7.738 7.738 0 0 0 419.85 65.55 Q 422.7 63.7 422.7 60.8 A 7.123 7.123 0 0 0 422.386 58.653 A 6.212 6.212 0 0 0 421.65 57.1 A 6.384 6.384 0 0 0 420.721 56.006 Q 419.707 55.034 418.034 54.081 A 22.3 22.3 0 0 0 417.8 53.95 A 28.462 28.462 0 0 0 415.806 52.957 Q 413.69 51.995 410.701 50.946 A 103.602 103.602 0 0 0 409.7 50.6 A 46.616 46.616 0 0 1 405.302 48.857 Q 403.188 47.883 401.512 46.795 A 19.335 19.335 0 0 1 398.75 44.65 A 11.324 11.324 0 0 1 395.456 38.654 A 16.794 16.794 0 0 1 395.1 35.1 Q 395.1 29.1 400.35 24.95 Q 404.754 21.469 412.008 20.908 A 37.527 37.527 0 0 1 414.9 20.8 A 40.794 40.794 0 0 1 419.346 21.031 Q 421.654 21.284 423.67 21.815 A 25.234 25.234 0 0 1 423.8 21.85 Q 427.7 22.9 430.8 24.5 L 428.3 31.9 Q 425.6 30.3 422.15 29.3 A 25.024 25.024 0 0 0 417.667 28.453 A 31.837 31.837 0 0 0 414.5 28.3 A 20.632 20.632 0 0 0 411.563 28.495 Q 408.477 28.94 406.6 30.4 A 9.322 9.322 0 0 0 405.242 31.673 Q 404.54 32.492 404.205 33.365 A 4.529 4.529 0 0 0 403.9 35 A 4.921 4.921 0 0 0 405.395 38.552 A 7.082 7.082 0 0 0 406 39.1 Q 408.065 40.772 413.998 42.734 A 84.459 84.459 0 0 0 414.2 42.8 A 67.753 67.753 0 0 1 419.262 44.698 Q 425.189 47.217 428 50.1 Q 431.9 54.1 431.9 60.1 Q 431.9 66.848 426.649 70.855 A 16.618 16.618 0 0 1 426.25 71.15 Q 421.51 74.547 414.062 75.095 A 40.423 40.423 0 0 1 411.1 75.2 Q 405.2 75.2 400.45 73.7 A 30.883 30.883 0 0 1 396.61 72.215 Q 394.629 71.284 393.048 70.136 A 18.229 18.229 0 0 1 392.6 69.8 Z M 14.9 96 L 5.9 96 L 5.9 35.3 A 11.015 11.015 0 0 0 5.773 33.564 Q 5.442 31.498 4.25 30.45 A 5.718 5.718 0 0 0 1.46 29.128 A 7.991 7.991 0 0 0 0 29 L 1.9 22 Q 7.762 22 10.822 24.964 A 10.15 10.15 0 0 1 13.4 29.3 Q 14.355 27.867 16.452 25.977 A 38.58 38.58 0 0 1 16.65 25.8 A 18.902 18.902 0 0 1 19.351 23.816 A 25.569 25.569 0 0 1 22.25 22.3 A 16.955 16.955 0 0 1 26.809 21.011 A 21.886 21.886 0 0 1 29.9 20.8 Q 35.9 20.8 41.15 23.95 A 22.329 22.329 0 0 1 48.328 30.917 A 27.464 27.464 0 0 1 49.6 33.05 Q 52.8 39 52.8 47.5 Q 52.8 55.8 49.6 62.05 A 27.846 27.846 0 0 1 45.666 67.882 A 23.029 23.029 0 0 1 41.25 71.75 Q 36.1 75.2 30.1 75.2 Q 25.5 75.2 21.5 73.35 A 30.352 30.352 0 0 1 18.084 71.511 Q 16.291 70.384 14.9 69.1 L 14.9 96 Z M 144.3 51.7 L 107.9 51.7 A 24.088 24.088 0 0 0 109.039 56.725 Q 110.375 60.538 113 63.1 Q 117.2 67.2 124.1 67.2 Q 128.6 67.2 132.2 66.25 Q 135.8 65.3 139.1 63.8 L 141.2 71.5 A 40.77 40.77 0 0 1 136.865 73.126 A 51.863 51.863 0 0 1 133.1 74.15 A 38.914 38.914 0 0 1 128.008 74.969 A 52.025 52.025 0 0 1 123 75.2 A 28.318 28.318 0 0 1 115.254 74.195 A 21.108 21.108 0 0 1 105.25 68.05 A 23.521 23.521 0 0 1 100.045 58.51 Q 98.7 53.845 98.7 48 A 35.359 35.359 0 0 1 99.533 40.178 A 28.84 28.84 0 0 1 101.65 34.05 A 24.642 24.642 0 0 1 106.666 26.968 A 22.887 22.887 0 0 1 109.9 24.35 A 21.048 21.048 0 0 1 120.159 20.878 A 26.205 26.205 0 0 1 122.2 20.8 Q 129.7 20.8 134.65 24.05 Q 139.6 27.3 142.1 32.8 A 28.185 28.185 0 0 1 144.526 42.664 A 33.434 33.434 0 0 1 144.6 44.9 A 75.204 75.204 0 0 1 144.309 51.597 A 69.426 69.426 0 0 1 144.3 51.7 Z M 235.6 51.7 L 199.2 51.7 A 24.088 24.088 0 0 0 200.339 56.725 Q 201.675 60.538 204.3 63.1 Q 208.5 67.2 215.4 67.2 Q 219.9 67.2 223.5 66.25 Q 227.1 65.3 230.4 63.8 L 232.5 71.5 A 40.77 40.77 0 0 1 228.165 73.126 A 51.863 51.863 0 0 1 224.4 74.15 A 38.914 38.914 0 0 1 219.308 74.969 A 52.025 52.025 0 0 1 214.3 75.2 A 28.318 28.318 0 0 1 206.554 74.195 A 21.108 21.108 0 0 1 196.55 68.05 A 23.521 23.521 0 0 1 191.345 58.51 Q 190 53.845 190 48 A 35.359 35.359 0 0 1 190.833 40.178 A 28.84 28.84 0 0 1 192.95 34.05 A 24.642 24.642 0 0 1 197.966 26.968 A 22.887 22.887 0 0 1 201.2 24.35 A 21.048 21.048 0 0 1 211.459 20.878 A 26.205 26.205 0 0 1 213.5 20.8 Q 221 20.8 225.95 24.05 Q 230.9 27.3 233.4 32.8 A 28.185 28.185 0 0 1 235.826 42.664 A 33.434 33.434 0 0 1 235.9 44.9 A 75.204 75.204 0 0 1 235.609 51.597 A 69.426 69.426 0 0 1 235.6 51.7 Z M 323.1 51.7 L 286.7 51.7 A 24.088 24.088 0 0 0 287.839 56.725 Q 289.175 60.538 291.8 63.1 Q 296 67.2 302.9 67.2 Q 307.4 67.2 311 66.25 Q 314.6 65.3 317.9 63.8 L 320 71.5 A 40.77 40.77 0 0 1 315.665 73.126 A 51.863 51.863 0 0 1 311.9 74.15 A 38.914 38.914 0 0 1 306.808 74.969 A 52.025 52.025 0 0 1 301.8 75.2 A 28.318 28.318 0 0 1 294.054 74.195 A 21.108 21.108 0 0 1 284.05 68.05 A 23.521 23.521 0 0 1 278.845 58.51 Q 277.5 53.845 277.5 48 A 35.359 35.359 0 0 1 278.333 40.178 A 28.84 28.84 0 0 1 280.45 34.05 A 24.642 24.642 0 0 1 285.466 26.968 A 22.887 22.887 0 0 1 288.7 24.35 A 21.048 21.048 0 0 1 298.959 20.878 A 26.205 26.205 0 0 1 301 20.8 Q 308.5 20.8 313.45 24.05 Q 318.4 27.3 320.9 32.8 A 28.185 28.185 0 0 1 323.326 42.664 A 33.434 33.434 0 0 1 323.4 44.9 A 75.204 75.204 0 0 1 323.109 51.597 A 69.426 69.426 0 0 1 323.1 51.7 Z M 486 51.7 L 449.6 51.7 A 24.088 24.088 0 0 0 450.739 56.725 Q 452.075 60.538 454.7 63.1 Q 458.9 67.2 465.8 67.2 Q 470.3 67.2 473.9 66.25 Q 477.5 65.3 480.8 63.8 L 482.9 71.5 A 40.77 40.77 0 0 1 478.565 73.126 A 51.863 51.863 0 0 1 474.8 74.15 A 38.914 38.914 0 0 1 469.708 74.969 A 52.025 52.025 0 0 1 464.7 75.2 A 28.318 28.318 0 0 1 456.954 74.195 A 21.108 21.108 0 0 1 446.95 68.05 A 23.521 23.521 0 0 1 441.745 58.51 Q 440.4 53.845 440.4 48 A 35.359 35.359 0 0 1 441.233 40.178 A 28.84 28.84 0 0 1 443.35 34.05 A 24.642 24.642 0 0 1 448.366 26.968 A 22.887 22.887 0 0 1 451.6 24.35 A 21.048 21.048 0 0 1 461.859 20.878 A 26.205 26.205 0 0 1 463.9 20.8 Q 471.4 20.8 476.35 24.05 Q 481.3 27.3 483.8 32.8 A 28.185 28.185 0 0 1 486.226 42.664 A 33.434 33.434 0 0 1 486.3 44.9 A 75.204 75.204 0 0 1 486.009 51.597 A 69.426 69.426 0 0 1 486 51.7 Z M 371 26.2 L 371 22 L 379.2 22 L 379.2 61.4 A 12.15 12.15 0 0 0 379.302 63.036 Q 379.634 65.47 381.05 66.35 Q 382.9 67.5 385.1 67.5 L 383.2 74.5 A 17.722 17.722 0 0 1 378.935 74.028 Q 373.298 72.628 371.703 67.08 A 13.59 13.59 0 0 1 371.6 66.7 A 21.307 21.307 0 0 1 368.49 70.126 A 28.498 28.498 0 0 1 365.35 72.55 Q 361.4 75.2 355.3 75.2 Q 348.8 75.2 343.5 71.9 A 22.947 22.947 0 0 1 336.087 64.373 A 27.923 27.923 0 0 1 335.05 62.55 A 27.228 27.228 0 0 1 332.42 54.608 A 36.644 36.644 0 0 1 331.9 48.3 A 33.142 33.142 0 0 1 332.897 40.031 A 27.968 27.968 0 0 1 335.05 34.3 Q 338.2 28.1 343.75 24.45 A 22.297 22.297 0 0 1 354.945 20.844 A 27.388 27.388 0 0 1 356.5 20.8 A 22.584 22.584 0 0 1 361.294 21.29 A 18.703 18.703 0 0 1 364.65 22.35 A 26.002 26.002 0 0 1 368.937 24.644 A 22.103 22.103 0 0 1 371 26.2 Z M 247.4 57.7 L 247.4 0 L 256.4 0 L 256.4 56.8 A 20.644 20.644 0 0 0 256.588 59.688 Q 257.05 62.952 258.65 64.8 A 7.363 7.363 0 0 0 263.234 67.276 A 10.724 10.724 0 0 0 264.9 67.4 Q 266.8 67.4 268.65 66.95 A 22.192 22.192 0 0 0 270.113 66.544 Q 271.048 66.247 271.8 65.9 L 274 73.2 Q 272.601 73.822 270.688 74.323 A 34.978 34.978 0 0 1 269.55 74.6 A 23.816 23.816 0 0 1 266.395 75.085 A 30.514 30.514 0 0 1 263.7 75.2 A 20.862 20.862 0 0 1 258.81 74.646 A 17.544 17.544 0 0 1 255.4 73.45 A 12.683 12.683 0 0 1 250.075 68.685 A 15.856 15.856 0 0 1 249.55 67.8 Q 247.816 64.654 247.48 60.012 A 32.105 32.105 0 0 1 247.4 57.7 Z M 74.3 74 L 65.3 74 L 65.3 22 L 74 22 L 74 33.3 Q 75.3 30 77.5 27.15 Q 79.7 24.3 83 22.55 A 14.817 14.817 0 0 1 87.68 21.026 A 19.459 19.459 0 0 1 90.7 20.8 Q 92.2 20.8 93.7 20.95 A 18.972 18.972 0 0 1 94.755 21.084 Q 95.255 21.162 95.682 21.262 A 8.817 8.817 0 0 1 96.2 21.4 L 93.5 30.7 A 9.763 9.763 0 0 0 91.355 30.088 Q 90.259 29.9 89 29.9 A 12.958 12.958 0 0 0 82.37 31.746 A 15.609 15.609 0 0 0 81.95 32 Q 78.622 34.086 76.478 38.442 A 22.927 22.927 0 0 0 76.45 38.5 Q 74.687 42.107 74.37 47.328 A 39.09 39.09 0 0 0 74.3 49.7 L 74.3 74 Z M 165.6 74 L 156.6 74 L 156.6 22 L 165.3 22 L 165.3 33.3 Q 166.6 30 168.8 27.15 Q 171 24.3 174.3 22.55 A 14.817 14.817 0 0 1 178.98 21.026 A 19.459 19.459 0 0 1 182 20.8 Q 183.5 20.8 185 20.95 A 18.972 18.972 0 0 1 186.055 21.084 Q 186.555 21.162 186.982 21.262 A 8.817 8.817 0 0 1 187.5 21.4 L 184.8 30.7 A 9.763 9.763 0 0 0 182.655 30.088 Q 181.559 29.9 180.3 29.9 A 12.958 12.958 0 0 0 173.67 31.746 A 15.609 15.609 0 0 0 173.25 32 Q 169.922 34.086 167.778 38.442 A 22.927 22.927 0 0 0 167.75 38.5 Q 165.987 42.107 165.67 47.328 A 39.09 39.09 0 0 0 165.6 49.7 L 165.6 74 Z M 370.2 60.7 L 370.2 32.8 Q 367.5 30.9 364.25 29.75 Q 361 28.6 357.4 28.6 A 15.924 15.924 0 0 0 352.429 29.354 A 14.024 14.024 0 0 0 348.95 31.05 A 16.301 16.301 0 0 0 343.931 36.474 A 19.962 19.962 0 0 0 343.2 37.85 A 20.663 20.663 0 0 0 341.447 43.527 A 27.678 27.678 0 0 0 341.1 48 Q 341.1 53.6 343.2 57.95 A 17.602 17.602 0 0 0 346.306 62.496 A 15.697 15.697 0 0 0 349 64.75 Q 352.7 67.2 357.3 67.2 Q 361.1 67.2 364.5 65.35 Q 367.9 63.5 370.2 60.7 Z M 14.9 35.4 L 14.9 61 Q 17.5 63.7 20.9 65.45 Q 24.3 67.2 28.3 67.2 Q 34.994 67.2 39.217 62.016 A 17.38 17.38 0 0 0 39.35 61.85 A 18.792 18.792 0 0 0 42.844 54.544 Q 43.505 51.855 43.588 48.708 A 34.555 34.555 0 0 0 43.6 47.8 Q 43.6 41.8 41.45 37.5 Q 39.3 33.2 35.75 30.9 Q 32.2 28.6 27.9 28.6 A 14.741 14.741 0 0 0 22.273 29.663 A 14.054 14.054 0 0 0 20.15 30.75 Q 16.7 32.9 14.9 35.4 Z M 107.8 44.4 L 136.3 44.4 A 24.355 24.355 0 0 0 135.896 39.815 Q 135.4 37.231 134.296 35.207 A 12.422 12.422 0 0 0 132.5 32.7 A 12.488 12.488 0 0 0 125.539 28.924 A 18.395 18.395 0 0 0 122 28.6 A 13.58 13.58 0 0 0 116.888 29.535 A 12.524 12.524 0 0 0 112.4 32.65 Q 108.6 36.7 107.8 44.4 Z M 199.1 44.4 L 227.6 44.4 A 24.355 24.355 0 0 0 227.196 39.815 Q 226.7 37.231 225.596 35.207 A 12.422 12.422 0 0 0 223.8 32.7 A 12.488 12.488 0 0 0 216.839 28.924 A 18.395 18.395 0 0 0 213.3 28.6 A 13.58 13.58 0 0 0 208.188 29.535 A 12.524 12.524 0 0 0 203.7 32.65 Q 199.9 36.7 199.1 44.4 Z M 286.6 44.4 L 315.1 44.4 A 24.355 24.355 0 0 0 314.696 39.815 Q 314.2 37.231 313.096 35.207 A 12.422 12.422 0 0 0 311.3 32.7 A 12.488 12.488 0 0 0 304.339 28.924 A 18.395 18.395 0 0 0 300.8 28.6 A 13.58 13.58 0 0 0 295.688 29.535 A 12.524 12.524 0 0 0 291.2 32.65 Q 287.4 36.7 286.6 44.4 Z M 449.5 44.4 L 478 44.4 A 24.355 24.355 0 0 0 477.596 39.815 Q 477.1 37.231 475.996 35.207 A 12.422 12.422 0 0 0 474.2 32.7 A 12.488 12.488 0 0 0 467.239 28.924 A 18.395 18.395 0 0 0 463.7 28.6 A 13.58 13.58 0 0 0 458.588 29.535 A 12.524 12.524 0 0 0 454.1 32.65 Q 450.3 36.7 449.5 44.4 Z"/>
    </g>
</svg>